<svg width="1600" height="420" viewBox="0 0 1600 420" fill="none" xmlns="http://www.w3.org/2000/svg" role="img" aria-labelledby="title desc">
  <title id="title">Globe Pulse — Live World Pulse, Mapped in Real Time</title>
  <desc id="desc">Award-winning hero banner for Globe Pulse by PenthiusX: an orbital view of a glowing Earth with live news arcs, AI heuristics and geospatial event pulses on a real-time 3D world map.</desc>

  <defs>
    <linearGradient id="spaceGrad" x1="0" y1="0" x2="1600" y2="420" gradientUnits="userSpaceOnUse">
      <stop stop-color="#04020D"/>
      <stop offset="0.45" stop-color="#100828"/>
      <stop offset="0.8" stop-color="#170A33"/>
      <stop offset="1" stop-color="#0B0420"/>
    </linearGradient>
    <linearGradient id="titleGrad" x1="640" y1="120" x2="960" y2="280" gradientUnits="userSpaceOnUse">
      <stop stop-color="#FFFFFF"/>
      <stop offset="0.45" stop-color="#9BFFF0"/>
      <stop offset="0.75" stop-color="#5AC8FF"/>
      <stop offset="1" stop-color="#C792FF"/>
    </linearGradient>
    <linearGradient id="arcGrad" x1="1080" y1="100" x2="1290" y2="330" gradientUnits="userSpaceOnUse">
      <stop stop-color="#7DF9E4"/>
      <stop offset="0.5" stop-color="#52C9FF"/>
      <stop offset="1" stop-color="#9B7BFF"/>
    </linearGradient>
    <linearGradient id="magGrad" x1="1174" y1="130" x2="1300" y2="330" gradientUnits="userSpaceOnUse">
      <stop stop-color="#FF7AE0"/>
      <stop offset="0.5" stop-color="#C792FF"/>
      <stop offset="1" stop-color="#7DF9E4"/>
    </linearGradient>
    <linearGradient id="bezelGrad" x1="0" y1="0" x2="1600" y2="0" gradientUnits="userSpaceOnUse">
      <stop stop-color="#7DF9E4" stop-opacity="0.55"/>
      <stop offset="0.5" stop-color="#9B7BFF" stop-opacity="0.08"/>
      <stop offset="1" stop-color="#E57BFF" stop-opacity="0.5"/>
    </linearGradient>
    <radialGradient id="ocean" cx="0" cy="0" r="1" gradientUnits="userSpaceOnUse" gradientTransform="translate(930 150) scale(340)">
      <stop stop-color="#163B72"/>
      <stop offset="0.38" stop-color="#0C2450"/>
      <stop offset="0.72" stop-color="#071838"/>
      <stop offset="1" stop-color="#040C22"/>
    </radialGradient>
    <radialGradient id="nebula" cx="0" cy="0" r="1" gradientUnits="userSpaceOnUse" gradientTransform="translate(1260 150) scale(430)">
      <stop stop-color="#7A3FF2" stop-opacity="0.32"/>
      <stop offset="0.55" stop-color="#3B1B6E" stop-opacity="0.12"/>
      <stop offset="1" stop-color="#3B1B6E" stop-opacity="0"/>
    </radialGradient>
    <radialGradient id="nebulaCyan" cx="0" cy="0" r="1" gradientUnits="userSpaceOnUse" gradientTransform="translate(880 330) scale(330)">
      <stop stop-color="#3FBCFF" stop-opacity="0.14"/>
      <stop offset="1" stop-color="#3FBCFF" stop-opacity="0"/>
    </radialGradient>
    <radialGradient id="leftLight" cx="0" cy="0" r="1" gradientUnits="userSpaceOnUse" gradientTransform="translate(680 215) scale(330)">
      <stop stop-color="#6FCFFF" stop-opacity="0.18"/>
      <stop offset="0.3" stop-color="#6FCFFF" stop-opacity="0.05"/>
      <stop offset="1" stop-color="#6FCFFF" stop-opacity="0"/>
    </radialGradient>
    <radialGradient id="termRight" cx="0" cy="0" r="1" gradientUnits="userSpaceOnUse" gradientTransform="translate(1340 215) scale(330)">
      <stop stop-color="#000000" stop-opacity="0.38"/>
      <stop offset="0.55" stop-color="#000000" stop-opacity="0.08"/>
      <stop offset="1" stop-color="#000000" stop-opacity="0"/>
    </radialGradient>
    <radialGradient id="vig" cx="0" cy="0" r="1" gradientUnits="userSpaceOnUse" gradientTransform="translate(800 210) rotate(90) scale(1150)">
      <stop stop-color="#03030C" stop-opacity="0"/>
      <stop offset="0.78" stop-color="#03030C" stop-opacity="0"/>
      <stop offset="1" stop-color="#02020A" stop-opacity="0.6"/>
    </radialGradient>
    <filter id="glow" x="-120%" y="-120%" width="340%" height="340%"><feGaussianBlur stdDeviation="6"/></filter>
    <filter id="softGlow" x="-80%" y="-80%" width="260%" height="260%"><feGaussianBlur stdDeviation="4"/></filter>
    <filter id="bigBlur" x="-60%" y="-60%" width="220%" height="220%"><feGaussianBlur stdDeviation="12"/></filter>
    <clipPath id="planetClip"><circle cx="1010" cy="215" r="330"/></clipPath>
  </defs>

  <rect width="1600" height="420" fill="url(#spaceGrad)"/>
  <rect width="1600" height="420" fill="url(#vig)"/>
  <rect x="24" width="1552" height="2" fill="url(#bezelGrad)"/>

  <circle cx="1260" cy="150" r="430" fill="url(#nebula)"/>
  <circle cx="880" cy="330" r="330" fill="url(#nebulaCyan)"/>
  <path d="M-60 300C400 180 1100 130 1660 -40" stroke="#C7B4FF" stroke-width="80" stroke-opacity="0.06" fill="none" filter="url(#bigBlur)"/>

  <g fill="#E7DFFF">
    <circle cx="120" cy="60" r="1.4"/><circle cx="240" cy="140" r="2"/>
    <circle cx="380" cy="60" r="1.2"/><circle cx="520" cy="180" r="1.6"/>
    <circle cx="60" cy="230" r="1.2"/><circle cx="90" cy="360" r="1.8"/>
    <circle cx="210" cy="330" r="1.2"/><circle cx="330" cy="400" r="1.6"/>
    <circle cx="460" cy="300" r="1.4"/><circle cx="620" cy="60" r="1.6"/>
    <circle cx="680" cy="170" r="1.1"/><circle cx="590" cy="120" r="1.3"/>
    <circle cx="250" cy="250" r="1.1"/><circle cx="40" cy="130" r="1.1"/>
    <circle cx="1420" cy="80" r="1.5"/><circle cx="1540" cy="150" r="1.2"/>
    <circle cx="1500" cy="340" r="1.7"/><circle cx="1370" cy="400" r="1.2"/>
    <circle cx="1450" cy="230" r="1.1"/><circle cx="1310" cy="40" r="1.4"/>
    <circle cx="1560" cy="380" r="1.1"/>
  </g>
  <g stroke="#9BC8FF" stroke-opacity="0.13" stroke-width="1" fill="none">
    <path d="M60 230L120 60L240 140Z"/>
    <path d="M330 400L460 300L520 180L590 120"/>
  </g>

  <circle cx="1010" cy="215" r="341" stroke="#57E6FF" stroke-opacity="0.35" stroke-width="3" fill="none" filter="url(#bigBlur)"/>
  <circle cx="1010" cy="215" r="330" fill="url(#ocean)" stroke="#55E4FF" stroke-opacity="0.5" stroke-width="1.5"/>

  <g clip-path="url(#planetClip)">
    <ellipse cx="1010" cy="215" rx="330" ry="60" stroke="#3E6DA0" stroke-opacity="0.25" stroke-width="1"/>
    <ellipse cx="1010" cy="215" rx="330" ry="130" stroke="#3E6DA0" stroke-opacity="0.25" stroke-width="1"/>
    <ellipse cx="1010" cy="215" rx="330" ry="210" stroke="#3E6DA0" stroke-opacity="0.25" stroke-width="1"/>
    <ellipse cx="1010" cy="215" rx="100" ry="330" stroke="#3E6DA0" stroke-opacity="0.22" stroke-width="1"/>
    <ellipse cx="1010" cy="215" rx="190" ry="330" stroke="#3E6DA0" stroke-opacity="0.22" stroke-width="1"/>
    <ellipse cx="1010" cy="215" rx="270" ry="330" stroke="#3E6DA0" stroke-opacity="0.22" stroke-width="1"/>
    <path d="M680 215H1340" stroke="#3E6DA0" stroke-opacity="0.28" stroke-width="1"/>
    <g fill="#4EC0FF">
      <circle cx="1020" cy="250" r="2" opacity="0.3"/><circle cx="1200" cy="210" r="2" opacity="0.3"/>
      <circle cx="1240" cy="290" r="1.8" opacity="0.3"/><circle cx="1160" cy="260" r="1.8" opacity="0.3"/>
      <circle cx="1100" cy="180" r="1.8" opacity="0.3"/><circle cx="1300" cy="240" r="1.6" opacity="0.3"/>
      <circle cx="1040" cy="300" r="1.6" opacity="0.3"/><circle cx="1320" cy="330" r="1.6" opacity="0.3"/>
      <circle cx="1180" cy="290" r="1.6" opacity="0.3"/><circle cx="1270" cy="120" r="1.6" opacity="0.3"/>
    </g>
  </g>
  <circle cx="1010" cy="215" r="330" fill="url(#leftLight)"/>
  <circle cx="1010" cy="215" r="330" fill="url(#termRight)"/>

  <g>
    <path d="M1174 152Q1200 138 1215 128" stroke="url(#arcGrad)" stroke-opacity="0.85" stroke-width="1.6" fill="none"/>
    <path d="M1215 128Q1221 195 1218 254" stroke="url(#arcGrad)" stroke-opacity="0.85" stroke-width="1.6" fill="none"/>
    <path d="M1138 214Q1196 244 1218 254" stroke="url(#arcGrad)" stroke-opacity="0.85" stroke-width="1.6" fill="none"/>
    <path d="M1138 214Q1132 262 1148 300" stroke="url(#arcGrad)" stroke-opacity="0.85" stroke-width="1.6" fill="none"/>
    <path d="M1218 254Q1288 306 1258 318" stroke="url(#arcGrad)" stroke-opacity="0.85" stroke-width="1.6" fill="none"/>
    <path d="M1174 152Q1312 236 1258 318" stroke="url(#magGrad)" stroke-opacity="0.9" stroke-width="1.8" fill="none"/>
    <g stroke="url(#arcGrad)" stroke-opacity="0.35" stroke-width="4" fill="none" filter="url(#softGlow)">
      <path d="M1174 152Q1200 138 1215 128"/>
      <path d="M1215 128Q1221 195 1218 254"/>
      <path d="M1138 214Q1196 244 1218 254"/>
      <path d="M1138 214Q1132 262 1148 300"/>
      <path d="M1218 254Q1288 306 1258 318"/>
    </g>
    <path d="M1174 152Q1312 236 1258 318" stroke="url(#magGrad)" stroke-opacity="0.45" stroke-width="5" fill="none" filter="url(#softGlow)" transform="translate(0 0)"/>
  </g>

  <g>
    <circle r="3" fill="#FFFFFF" filter="url(#glow)"><animateMotion dur="5s" repeatCount="indefinite" path="M1174 152Q1200 138 1215 128"/></circle>
    <circle r="3" fill="#FFFFFF" filter="url(#glow)"><animateMotion dur="6s" begin="2s" repeatCount="indefinite" path="M1215 128Q1221 195 1218 254"/></circle>
    <circle r="3" fill="#9BFFF0" filter="url(#glow)"><animateMotion dur="5.5s" begin="0.5s" repeatCount="indefinite" path="M1138 214Q1132 262 1148 300"/></circle>
    <circle r="3" fill="#FFFFFF" filter="url(#glow)"><animateMotion dur="7s" begin="1s" repeatCount="indefinite" path="M1174 152Q1312 236 1258 318"/></circle>
    <circle r="3" fill="#FFC2F2" filter="url(#glow)"><animateMotion dur="4.5s" begin="0.8s" repeatCount="indefinite" path="M1138 214Q1196 244 1218 254"/></circle>
  </g>

  <g>
    <circle cx="1215" cy="128" r="5" fill="#EAFDF7">
      <animate attributeName="opacity" values="1;0.45;1" dur="2.4s" repeatCount="indefinite"/>
    </circle>
    <circle cx="1215" cy="128" r="10" stroke="#BAF7E8" stroke-opacity="0.5" stroke-width="1.5">
      <animate attributeName="r" values="6;20" dur="2.6s" repeatCount="indefinite"/>
      <animate attributeName="opacity" values="0.55;0" dur="2.6s" repeatCount="indefinite"/>
      <animate attributeName="stroke-opacity" values="0.5;0.1" dur="2.6s" repeatCount="indefinite"/>
    </circle>
    <circle cx="1258" cy="318" r="4.5" fill="#FFE8B0">
      <animate attributeName="opacity" values="1;0.45;1" dur="2.8s" repeatCount="indefinite"/>
    </circle>
    <circle cx="1258" cy="318" r="9" stroke="#FFC861" stroke-opacity="0.5" stroke-width="1.5">
      <animate attributeName="r" values="5;18" dur="2.8s" repeatCount="indefinite"/>
      <animate attributeName="opacity" values="0.55;0" dur="2.8s" repeatCount="indefinite"/>
      <animate attributeName="stroke-opacity" values="0.5;0.1" dur="2.8s" repeatCount="indefinite"/>
    </circle>
    <circle cx="1174" cy="152" r="3.5" fill="#EAFDF7"/>
    <circle cx="1138" cy="214" r="4" fill="#EAFDF7"/>
    <circle cx="1218" cy="254" r="3.5" fill="#EAFDF7"/>
    <circle cx="1148" cy="300" r="3.5" fill="#EAFDF7"/>
    <circle cx="1290" cy="120" r="3" fill="#EAFDF7"/>
  </g>

  <text x="1215" y="150" fill="#BFEAF2" fill-opacity="0.85" font-family="'Plus Jakarta Sans', Inter, 'Helvetica Neue', Arial, ui-sans-serif, system-ui, sans-serif" font-size="7.5" font-weight="700" letter-spacing="2" text-anchor="middle">TOKYO</text>
  <text x="1218" y="274" fill="#BFEAF2" fill-opacity="0.85" font-family="'Plus Jakarta Sans', Inter, 'Helvetica Neue', Arial, ui-sans-serif, system-ui, sans-serif" font-size="7.5" font-weight="700" letter-spacing="2" text-anchor="middle">SINGAPORE</text>
  <text x="1258" y="338" fill="#E8C9A0" fill-opacity="0.9" font-family="'Plus Jakarta Sans', Inter, 'Helvetica Neue', Arial, ui-sans-serif, system-ui, sans-serif" font-size="7.5" font-weight="700" letter-spacing="2" text-anchor="middle">SYDNEY</text>

  <g>
    <circle cx="92" cy="80" r="3" fill="#7DF9E4"/>
    <circle cx="92" cy="80" r="7" stroke="#7DF9E4" stroke-opacity="0.5">
      <animate attributeName="r" values="4;11" dur="2.2s" repeatCount="indefinite"/>
      <animate attributeName="opacity" values="0.5;0" dur="2.2s" repeatCount="indefinite"/>
      <animate attributeName="stroke-opacity" values="0.5;0.1" dur="2.2s" repeatCount="indefinite"/>
    </circle>
    <text x="110" y="85" fill="#A9C9FF" font-family="'Plus Jakarta Sans', Inter, 'Helvetica Neue', Arial, ui-sans-serif, system-ui, sans-serif" font-size="13" font-weight="700" letter-spacing="4">PENTHIUSX · OPEN SOURCE INTELLIGENCE</text>
  </g>

  <text x="800" y="176" fill="url(#titleGrad)" font-family="'Plus Jakarta Sans', Inter, 'Helvetica Neue', Arial, ui-sans-serif, system-ui, sans-serif" font-size="100" font-weight="800" letter-spacing="-2" text-anchor="middle">Globe</text>
  <text x="800" y="262" fill="#39FF14" font-family="'Plus Jakarta Sans', Inter, 'Helvetica Neue', Arial, ui-sans-serif, system-ui, sans-serif" font-size="100" font-weight="800" letter-spacing="-2" text-anchor="middle" filter="url(#glow)">Pulse</text>
  <text x="800" y="262" fill="#3DFF63" font-family="'Plus Jakarta Sans', Inter, 'Helvetica Neue', Arial, ui-sans-serif, system-ui, sans-serif" font-size="100" font-weight="800" letter-spacing="-2" text-anchor="middle">Pulse</text>
  <text x="800" y="306" fill="#C7D6F5" font-family="'Plus Jakarta Sans', Inter, 'Helvetica Neue', Arial, ui-sans-serif, system-ui, sans-serif" font-size="17.5" font-weight="500" text-anchor="middle">Live global news, AI heuristics &amp; geospatial events,</text>
  <text x="800" y="330" fill="#C7D6F5" font-family="'Plus Jakarta Sans', Inter, 'Helvetica Neue', Arial, ui-sans-serif, system-ui, sans-serif" font-size="17.5" font-weight="500" text-anchor="middle">pulsing across a real-time 3D world map.</text>

  <g>
    <rect x="60" y="354" width="206" height="36" rx="18" fill="#0E1233" stroke="#3B2E86" stroke-opacity="0.7"/>
    <circle cx="84" cy="372" r="3" fill="#7DF9E4">
      <animate attributeName="opacity" values="1;0.3;1" dur="1.8s" repeatCount="indefinite"/>
    </circle>
    <text x="100" y="377" fill="#D6E6F7" font-family="'Plus Jakarta Sans', Inter, 'Helvetica Neue', Arial, ui-sans-serif, system-ui, sans-serif" font-size="13.5" font-weight="600" letter-spacing="0.5">LIVE WORLD FEED</text>
  </g>
  <g>
    <rect x="278" y="354" width="196" height="36" rx="18" fill="#0E1233" stroke="#3B2E86" stroke-opacity="0.7"/>
    <rect x="337" y="366" width="14" height="11" rx="2.5" stroke="#C792FF" stroke-width="1.6" fill="#0E1233"/>
    <path d="M344 366V361" stroke="#C792FF" stroke-width="1.6" stroke-linecap="round"/>
    <circle cx="344" cy="359.5" r="1.6" fill="#7DF9E4"/>
    <circle cx="340" cy="370" r="1.9" fill="#7DF9E4"/>
    <circle cx="348" cy="370" r="1.9" fill="#7DF9E4"/>
    <path d="M341.5 374.5H346.5" stroke="#7DF9E4" stroke-width="1.4" stroke-linecap="round"/>
    <text x="360" y="377" fill="#D6E6F7" font-family="'Plus Jakarta Sans', Inter, 'Helvetica Neue', Arial, ui-sans-serif, system-ui, sans-serif" font-size="13.5" font-weight="600" letter-spacing="0.5">AI HEURISTICS</text>
  </g>
  <g>
    <rect x="486" y="354" width="200" height="36" rx="18" fill="#0E1233" stroke="#3B2E86" stroke-opacity="0.7"/>
    <circle cx="512" cy="372" r="8" stroke="#7DF9E4" stroke-width="1.5" fill="#0E1233"/>
    <ellipse cx="512" cy="372" rx="3.5" ry="8" stroke="#7DF9E4" stroke-width="1" fill="none"/>
    <path d="M505 372H519" stroke="#7DF9E4" stroke-width="1"/>
    <text x="532" y="377" fill="#D6E6F7" font-family="'Plus Jakarta Sans', Inter, 'Helvetica Neue', Arial, ui-sans-serif, system-ui, sans-serif" font-size="13.5" font-weight="600" letter-spacing="0.5">GEOSPATIAL EVENTS</text>
  </g>

  <g>
    <rect x="24" y="392" width="1552" height="28" rx="14" fill="#0A0518" fill-opacity="0.85" stroke="#3A2A6E" stroke-opacity="0.55"/>
    <circle cx="46" cy="406" r="4" fill="#FF5D5D">
      <animate attributeName="opacity" values="1;0.2;1" dur="1.6s" repeatCount="indefinite"/>
    </circle>
    <text x="58" y="411" fill="#FF9B9B" font-family="'Plus Jakarta Sans', Inter, 'Helvetica Neue', Arial, ui-sans-serif, system-ui, sans-serif" font-size="10.5" font-weight="800" letter-spacing="2">LIVE</text>
    <path d="M90 399V413" stroke="#4A2F9E" stroke-opacity="0.7" stroke-width="1"/>
    <text x="800" y="411" fill="#9489C9" font-family="'Plus Jakarta Sans', Inter, 'Helvetica Neue', Arial, ui-sans-serif, system-ui, sans-serif" font-size="12" font-weight="500" letter-spacing="0.5" text-anchor="middle">3D WORLD MONITOR ACTIVE · AI SENTIMENT +84% · 12 LANGUAGES · CRISIS TRACKING: ON · GLOBAL PULSE ONLINE</text>
  </g>

  <g>
    <rect x="1334" y="16" width="190" height="30" rx="15" fill="#120A2C" fill-opacity="0.9" stroke="#4A2F9E" stroke-opacity="0.55"/>
    <circle cx="1354" cy="31" r="4" fill="#7DF9E4">
      <animate attributeName="opacity" values="1;0.25;1" dur="1.8s" repeatCount="indefinite"/>
    </circle>
    <text x="1370" y="36" fill="#C9F7EE" font-family="'Plus Jakarta Sans', Inter, 'Helvetica Neue', Arial, ui-sans-serif, system-ui, sans-serif" font-size="10.5" font-weight="800" letter-spacing="2">SYSTEMS LIVE</text>
  </g>
</svg>